<svg xmlns="http://www.w3.org/2000/svg" width="1024" height="1024" style="enable-background:new 0 0 1024 1024" xml:space="preserve"><path style="fill:#000f9f" d="M0 0h1024v1024H0z"/><path d="M396.773 192.964c87.91-21.99 142.544-21.99 230.454 0 37.973 9.493 84.423 32.597 122.396 54.199 33.323 18.89 52.988 55.603 52.988 95.853v431.896c0 40.125-32.528 72.653-72.653 72.653H294.042c-40.125 0-72.653-32.528-72.653-72.653V343.016c0-40.25 19.665-76.915 52.988-95.902 37.973-21.554 84.471-44.657 122.396-54.15zm242.175-46.982c-95.61-23.976-158.286-23.976-253.848 0-44.754 11.14-95.999 37.1-134.65 59.09-50.082 28.432-77.496 82.195-77.496 137.895v431.945c0 66.875 54.213 121.088 121.088 121.088h435.916c66.875 0 121.088-54.213 121.088-121.088V343.016c0-55.7-27.366-109.464-77.496-137.992-38.603-21.941-89.847-47.854-134.602-59.09v.048zM366.695 750.694c0 26.75-21.686 48.436-48.436 48.436s-48.435-21.686-48.435-48.436 21.685-48.435 48.435-48.435 48.435 21.685 48.435 48.435zm0 0c0-26.75 21.685-48.435 48.435-48.435s48.435 21.685 48.435 48.435-21.685 48.436-48.435 48.436-48.435-21.686-48.435-48.436zM705.74 799.13c26.75 0 48.435-21.686 48.435-48.436S732.49 702.26 705.74 702.26c-26.75 0-48.436 21.685-48.436 48.435 0-26.75-21.685-48.435-48.435-48.435-26.75 0-48.435 21.685-48.435 48.435s21.685 48.436 48.435 48.436c26.75 0 48.435-21.686 48.435-48.436 0 26.75 21.686 48.436 48.436 48.436zM342.477 363.213c-13.375 0-24.218 10.843-24.218 24.218v96.87c0 13.375 10.843 24.218 24.218 24.218h145.305V363.213H342.477zm193.74 0V508.52h145.306c13.375 0 24.218-10.843 24.218-24.218v-96.87c0-13.375-10.843-24.218-24.218-24.218H536.218zm-266.393 24.218c0-40.125 32.528-72.653 72.653-72.653h339.046c40.125 0 72.653 32.528 72.653 72.653v96.87c0 40.125-32.528 72.653-72.653 72.653H342.477c-40.125 0-72.653-32.528-72.653-72.653v-96.87zm169.523-169.523c-13.375 0-24.217 10.842-24.217 24.217s10.842 24.218 24.217 24.218h145.306c13.375 0 24.217-10.843 24.217-24.218s-10.842-24.217-24.217-24.217H439.347z" style="fill:#fff"/></svg>
